<svg id="visual" viewBox="0 0 900 600" width="900" height="600" xmlns="http://www.w3.org/2000/svg" xmlns:xlink="http://www.w3.org/1999/xlink" version="1.1"><g stroke-width="1" stroke-linejoin="bevel"><path d="M456 276.3L431 276L436 338.9Z" fill="#1d55c9" stroke="#1d55c9"></path><path d="M436 338.9L460 348.6L456 276.3Z" fill="#0348b9" stroke="#0348b9"></path><path d="M439 409.6L474 355.9L460 348.6Z" fill="#0041a5" stroke="#0041a5"></path><path d="M460 348.6L502 289.3L456 276.3Z" fill="#426ed6" stroke="#426ed6"></path><path d="M474 355.9L502 289.3L460 348.6Z" fill="#3766d2" stroke="#3766d2"></path><path d="M411 249L391 271.3L431 276Z" fill="#0041a5" stroke="#0041a5"></path><path d="M431 276L391 271.3L436 338.9Z" fill="#1d55c9" stroke="#1d55c9"></path><path d="M438 208L411 249L456 276.3Z" fill="#003d9a" stroke="#003d9a"></path><path d="M456 276.3L411 249L431 276Z" fill="#0144af" stroke="#0144af"></path><path d="M532 327.1L507 280.3L502 289.3Z" fill="#0041a5" stroke="#0041a5"></path><path d="M502 289.3L507 280.3L456 276.3Z" fill="#3766d2" stroke="#3766d2"></path><path d="M474 355.9L532 327.1L502 289.3Z" fill="#003d9a" stroke="#003d9a"></path><path d="M411 249L366 257.1L391 271.3Z" fill="#426ed6" stroke="#426ed6"></path><path d="M391 271.3L364 355.7L436 338.9Z" fill="#3766d2" stroke="#3766d2"></path><path d="M345 326.7L364 355.7L391 271.3Z" fill="#0041a5" stroke="#0041a5"></path><path d="M436 338.9L439 409.6L460 348.6Z" fill="#064cc4" stroke="#064cc4"></path><path d="M507 280.3L438 208L456 276.3Z" fill="#1d55c9" stroke="#1d55c9"></path><path d="M411 249L404 205.4L366 257.1Z" fill="#4c77da" stroke="#4c77da"></path><path d="M366 257.1L345 326.7L391 271.3Z" fill="#003d9a" stroke="#003d9a"></path><path d="M345 326.7L352 350.1L364 355.7Z" fill="#003990" stroke="#003990"></path><path d="M382 424.4L439 409.6L364 355.7Z" fill="#3766d2" stroke="#3766d2"></path><path d="M364 355.7L439 409.6L436 338.9Z" fill="#0041a5" stroke="#0041a5"></path><path d="M474 355.9L546 379.7L532 327.1Z" fill="#3766d2" stroke="#3766d2"></path><path d="M438 208L407 208L411 249Z" fill="#4c77da" stroke="#4c77da"></path><path d="M408 200.1L404 205.4L407 208Z" fill="#3766d2" stroke="#3766d2"></path><path d="M407 208L404 205.4L411 249Z" fill="#426ed6" stroke="#426ed6"></path><path d="M438 208L408 200.1L407 208Z" fill="#2b5dcd" stroke="#2b5dcd"></path><path d="M339 366L348 368.7L352 350.1Z" fill="#1d55c9" stroke="#1d55c9"></path><path d="M352 350.1L348 368.7L364 355.7Z" fill="#003990" stroke="#003990"></path><path d="M346 239L343 251.3L366 257.1Z" fill="#3766d2" stroke="#3766d2"></path><path d="M366 257.1L324 300.1L345 326.7Z" fill="#1d55c9" stroke="#1d55c9"></path><path d="M346 239L366 257.1L404 205.4Z" fill="#2b5dcd" stroke="#2b5dcd"></path><path d="M330 222.4L346 239L404 205.4Z" fill="#3766d2" stroke="#3766d2"></path><path d="M294 289.1L324 300.1L343 251.3Z" fill="#003d9a" stroke="#003d9a"></path><path d="M343 251.3L324 300.1L366 257.1Z" fill="#3766d2" stroke="#3766d2"></path><path d="M345 326.7L339 366L352 350.1Z" fill="#0144af" stroke="#0144af"></path><path d="M302 335.9L339 366L345 326.7Z" fill="#003d9a" stroke="#003d9a"></path><path d="M348 368.7L382 424.4L364 355.7Z" fill="#064cc4" stroke="#064cc4"></path><path d="M346 239L338 245.9L343 251.3Z" fill="#003990" stroke="#003990"></path><path d="M579 329.6L568 306L532 327.1Z" fill="#0348b9" stroke="#0348b9"></path><path d="M532 327.1L568 306L507 280.3Z" fill="#0348b9" stroke="#0348b9"></path><path d="M481 178.6L461 179.7L438 208Z" fill="#4c77da" stroke="#4c77da"></path><path d="M510 415.7L546 379.7L474 355.9Z" fill="#003990" stroke="#003990"></path><path d="M568 306L556 249.9L507 280.3Z" fill="#003990" stroke="#003990"></path><path d="M439 409.6L510 415.7L474 355.9Z" fill="#064cc4" stroke="#064cc4"></path><path d="M546 379.7L553 372.7L532 327.1Z" fill="#003990" stroke="#003990"></path><path d="M481 178.6L438 208L507 280.3Z" fill="#1d55c9" stroke="#1d55c9"></path><path d="M438 208L461 179.7L408 200.1Z" fill="#0144af" stroke="#0144af"></path><path d="M577 247.3L558 245L556 249.9Z" fill="#2b5dcd" stroke="#2b5dcd"></path><path d="M556 249.9L558 245L507 280.3Z" fill="#1d55c9" stroke="#1d55c9"></path><path d="M553 372.7L566 350.9L532 327.1Z" fill="#0348b9" stroke="#0348b9"></path><path d="M313 389.7L382 424.4L348 368.7Z" fill="#1d55c9" stroke="#1d55c9"></path><path d="M439 409.6L459 445.7L510 415.7Z" fill="#003d9a" stroke="#003d9a"></path><path d="M558 245L481 178.6L507 280.3Z" fill="#1d55c9" stroke="#1d55c9"></path><path d="M579 329.6L577 291.7L568 306Z" fill="#3766d2" stroke="#3766d2"></path><path d="M568 306L577 291.7L556 249.9Z" fill="#0348b9" stroke="#0348b9"></path><path d="M620 341.1L579 329.6L566 350.9Z" fill="#0144af" stroke="#0144af"></path><path d="M566 350.9L579 329.6L532 327.1Z" fill="#1d55c9" stroke="#1d55c9"></path><path d="M323 440.9L389 435.6L382 424.4Z" fill="#1d55c9" stroke="#1d55c9"></path><path d="M382 424.4L389 435.6L439 409.6Z" fill="#0041a5" stroke="#0041a5"></path><path d="M389 435.6L459 445.7L439 409.6Z" fill="#3766d2" stroke="#3766d2"></path><path d="M400 167.1L330 222.4L404 205.4Z" fill="#3766d2" stroke="#3766d2"></path><path d="M346 239L330 222.4L338 245.9Z" fill="#0348b9" stroke="#0348b9"></path><path d="M338 245.9L294 289.1L343 251.3Z" fill="#1d55c9" stroke="#1d55c9"></path><path d="M400 167.1L404 205.4L408 200.1Z" fill="#0348b9" stroke="#0348b9"></path><path d="M481 178.6L473 166.7L461 179.7Z" fill="#003990" stroke="#003990"></path><path d="M461 179.7L400 167.1L408 200.1Z" fill="#003990" stroke="#003990"></path><path d="M490 166.6L473 166.7L481 178.6Z" fill="#0348b9" stroke="#0348b9"></path><path d="M294 289.1L302 335.9L324 300.1Z" fill="#426ed6" stroke="#426ed6"></path><path d="M324 300.1L302 335.9L345 326.7Z" fill="#3766d2" stroke="#3766d2"></path><path d="M339 366L313 389.7L348 368.7Z" fill="#0144af" stroke="#0144af"></path><path d="M440 104.4L400 167.1L461 179.7Z" fill="#426ed6" stroke="#426ed6"></path><path d="M558 245L497 170.6L481 178.6Z" fill="#003d9a" stroke="#003d9a"></path><path d="M577 291.7L577 247.3L556 249.9Z" fill="#3766d2" stroke="#3766d2"></path><path d="M558 245L520 142.7L497 170.6Z" fill="#0144af" stroke="#0144af"></path><path d="M607 249.4L577 247.3L577 291.7Z" fill="#0041a5" stroke="#0041a5"></path><path d="M497 170.6L490 166.6L481 178.6Z" fill="#0348b9" stroke="#0348b9"></path><path d="M473 166.7L440 104.4L461 179.7Z" fill="#003990" stroke="#003990"></path><path d="M281 278.9L294 289.1L338 245.9Z" fill="#3766d2" stroke="#3766d2"></path><path d="M302 335.9L313 389.7L339 366Z" fill="#3766d2" stroke="#3766d2"></path><path d="M571 398.4L582 379.6L553 372.7Z" fill="#1d55c9" stroke="#1d55c9"></path><path d="M553 372.7L582 379.6L566 350.9Z" fill="#2b5dcd" stroke="#2b5dcd"></path><path d="M613 248.3L607 249.4L577 291.7Z" fill="#1d55c9" stroke="#1d55c9"></path><path d="M571 398.4L553 372.7L546 379.7Z" fill="#003990" stroke="#003990"></path><path d="M571 398.4L546 379.7L510 415.7Z" fill="#2b5dcd" stroke="#2b5dcd"></path><path d="M609 401.4L571 398.4L600 510.3Z" fill="#1d55c9" stroke="#1d55c9"></path><path d="M330 222.4L281 278.9L338 245.9Z" fill="#064cc4" stroke="#064cc4"></path><path d="M294 289.1L248 333.6L302 335.9Z" fill="#4c77da" stroke="#4c77da"></path><path d="M233 399.7L292 415.4L313 389.7Z" fill="#4c77da" stroke="#4c77da"></path><path d="M613 248.3L577 291.7L648 316.9Z" fill="#1d55c9" stroke="#1d55c9"></path><path d="M577 247.3L603 224.1L558 245Z" fill="#2b5dcd" stroke="#2b5dcd"></path><path d="M609 401.4L604 381.9L582 379.6Z" fill="#0144af" stroke="#0144af"></path><path d="M582 379.6L620 341.1L566 350.9Z" fill="#426ed6" stroke="#426ed6"></path><path d="M389 435.6L426 484.6L459 445.7Z" fill="#064cc4" stroke="#064cc4"></path><path d="M459 445.7L510 490.3L510 415.7Z" fill="#426ed6" stroke="#426ed6"></path><path d="M571 398.4L609 401.4L582 379.6Z" fill="#0348b9" stroke="#0348b9"></path><path d="M405 494.4L426 484.6L389 435.6Z" fill="#4c77da" stroke="#4c77da"></path><path d="M620 341.1L577 291.7L579 329.6Z" fill="#0144af" stroke="#0144af"></path><path d="M607 249.4L603 224.1L577 247.3Z" fill="#0348b9" stroke="#0348b9"></path><path d="M613 248.3L603 224.1L607 249.4Z" fill="#426ed6" stroke="#426ed6"></path><path d="M497 131.4L492 133.3L490 166.6Z" fill="#1d55c9" stroke="#1d55c9"></path><path d="M292 415.4L323 440.9L313 389.7Z" fill="#003990" stroke="#003990"></path><path d="M313 389.7L323 440.9L382 424.4Z" fill="#003990" stroke="#003990"></path><path d="M520 142.7L490 166.6L497 170.6Z" fill="#3766d2" stroke="#3766d2"></path><path d="M490 166.6L492 133.3L473 166.7Z" fill="#0041a5" stroke="#0041a5"></path><path d="M604 381.9L620 341.1L582 379.6Z" fill="#4c77da" stroke="#4c77da"></path><path d="M608 198.4L520 142.7L558 245Z" fill="#4c77da" stroke="#4c77da"></path><path d="M520 142.7L497 131.4L490 166.6Z" fill="#0348b9" stroke="#0348b9"></path><path d="M361 136.6L312 173.7L400 167.1Z" fill="#3766d2" stroke="#3766d2"></path><path d="M579 119.9L518 136.4L520 142.7Z" fill="#1d55c9" stroke="#1d55c9"></path><path d="M520 142.7L518 136.4L497 131.4Z" fill="#1d55c9" stroke="#1d55c9"></path><path d="M248 333.6L313 389.7L302 335.9Z" fill="#064cc4" stroke="#064cc4"></path><path d="M361 136.6L400 167.1L369 104.6Z" fill="#2b5dcd" stroke="#2b5dcd"></path><path d="M400 167.1L312 173.7L330 222.4Z" fill="#0041a5" stroke="#0041a5"></path><path d="M330 222.4L231 186.6L281 278.9Z" fill="#0348b9" stroke="#0348b9"></path><path d="M440 104.4L473 166.7L492 133.3Z" fill="#0348b9" stroke="#0348b9"></path><path d="M510 490.3L571 398.4L510 415.7Z" fill="#4c77da" stroke="#4c77da"></path><path d="M663 368.6L666 344.1L620 341.1Z" fill="#2b5dcd" stroke="#2b5dcd"></path><path d="M376 508.3L405 494.4L374 508.1Z" fill="#426ed6" stroke="#426ed6"></path><path d="M451 511.4L510 490.3L459 445.7Z" fill="#4c77da" stroke="#4c77da"></path><path d="M451 511.4L459 445.7L426 484.6Z" fill="#4c77da" stroke="#4c77da"></path><path d="M231 351.7L194 315.9L198 350.9Z" fill="#426ed6" stroke="#426ed6"></path><path d="M281 278.9L248 333.6L294 289.1Z" fill="#1d55c9" stroke="#1d55c9"></path><path d="M647 258L608 198.4L603 224.1Z" fill="#064cc4" stroke="#064cc4"></path><path d="M603 224.1L608 198.4L558 245Z" fill="#0144af" stroke="#0144af"></path><path d="M509 80.7L492 133.3L497 131.4Z" fill="#0348b9" stroke="#0348b9"></path><path d="M509 80.7L440 104.4L492 133.3Z" fill="#003990" stroke="#003990"></path><path d="M416 518.3L451 511.4L426 484.6Z" fill="#0041a5" stroke="#0041a5"></path><path d="M660 320.7L648 316.9L666 344.1Z" fill="#0348b9" stroke="#0348b9"></path><path d="M620 341.1L648 316.9L577 291.7Z" fill="#064cc4" stroke="#064cc4"></path><path d="M613 248.3L647 258L603 224.1Z" fill="#3766d2" stroke="#3766d2"></path><path d="M648 316.9L647 258L613 248.3Z" fill="#0041a5" stroke="#0041a5"></path><path d="M374 508.1L405 494.4L389 435.6Z" fill="#003990" stroke="#003990"></path><path d="M405 494.4L416 518.3L426 484.6Z" fill="#003d9a" stroke="#003d9a"></path><path d="M374 508.1L389 435.6L323 440.9Z" fill="#003d9a" stroke="#003d9a"></path><path d="M286 505.6L374 508.1L323 440.9Z" fill="#003990" stroke="#003990"></path><path d="M416 523.3L416 518.3L376 508.3Z" fill="#426ed6" stroke="#426ed6"></path><path d="M376 508.3L416 518.3L405 494.4Z" fill="#0041a5" stroke="#0041a5"></path><path d="M440 104.4L369 104.6L400 167.1Z" fill="#0041a5" stroke="#0041a5"></path><path d="M361 136.6L348 106.9L312 173.7Z" fill="#0144af" stroke="#0144af"></path><path d="M209 279.3L248 333.6L281 278.9Z" fill="#0041a5" stroke="#0041a5"></path><path d="M248 333.6L231 351.7L313 389.7Z" fill="#064cc4" stroke="#064cc4"></path><path d="M292 415.4L250 448.6L323 440.9Z" fill="#3766d2" stroke="#3766d2"></path><path d="M666 344.1L648 316.9L620 341.1Z" fill="#3766d2" stroke="#3766d2"></path><path d="M648 316.9L660 320.7L647 258Z" fill="#003d9a" stroke="#003d9a"></path><path d="M333 572.3L416 523.3L376 508.3Z" fill="#0041a5" stroke="#0041a5"></path><path d="M416 518.3L416 523.3L451 511.4Z" fill="#0041a5" stroke="#0041a5"></path><path d="M416 523.3L454 525.6L451 511.4Z" fill="#426ed6" stroke="#426ed6"></path><path d="M451 511.4L454 525.6L510 490.3Z" fill="#0144af" stroke="#0144af"></path><path d="M369 104.6L348 106.9L361 136.6Z" fill="#2b5dcd" stroke="#2b5dcd"></path><path d="M663 368.6L620 341.1L604 381.9Z" fill="#426ed6" stroke="#426ed6"></path><path d="M660 320.7L669 249L647 258Z" fill="#2b5dcd" stroke="#2b5dcd"></path><path d="M609 401.4L663 368.6L604 381.9Z" fill="#0041a5" stroke="#0041a5"></path><path d="M687 404.9L663 368.6L609 401.4Z" fill="#003d9a" stroke="#003d9a"></path><path d="M231 351.7L233 399.7L313 389.7Z" fill="#0041a5" stroke="#0041a5"></path><path d="M635 174.4L579 119.9L608 198.4Z" fill="#4c77da" stroke="#4c77da"></path><path d="M608 198.4L579 119.9L520 142.7Z" fill="#2b5dcd" stroke="#2b5dcd"></path><path d="M518 136.4L509 80.7L497 131.4Z" fill="#003990" stroke="#003990"></path><path d="M669 249L608 198.4L647 258Z" fill="#003990" stroke="#003990"></path><path d="M667 183.6L635 174.4L608 198.4Z" fill="#1d55c9" stroke="#1d55c9"></path><path d="M704 312L669 249L660 320.7Z" fill="#003990" stroke="#003990"></path><path d="M527 82.4L509 80.7L518 136.4Z" fill="#4c77da" stroke="#4c77da"></path><path d="M440 104.4L395 14.7L369 104.6Z" fill="#3766d2" stroke="#3766d2"></path><path d="M360 7.9L299 45.7L348 106.9Z" fill="#0348b9" stroke="#0348b9"></path><path d="M690 340.6L677 334L666 344.1Z" fill="#0041a5" stroke="#0041a5"></path><path d="M666 344.1L677 334L660 320.7Z" fill="#0041a5" stroke="#0041a5"></path><path d="M231 186.6L330 222.4L312 173.7Z" fill="#3766d2" stroke="#3766d2"></path><path d="M231 186.6L209 279.3L281 278.9Z" fill="#064cc4" stroke="#064cc4"></path><path d="M231 351.7L199 371L233 399.7Z" fill="#4c77da" stroke="#4c77da"></path><path d="M579 119.9L527 82.4L518 136.4Z" fill="#064cc4" stroke="#064cc4"></path><path d="M233 399.7L250 448.6L292 415.4Z" fill="#003d9a" stroke="#003d9a"></path><path d="M250 128.6L231 186.6L312 173.7Z" fill="#1d55c9" stroke="#1d55c9"></path><path d="M579 119.9L533 76.6L527 82.4Z" fill="#426ed6" stroke="#426ed6"></path><path d="M527 82.4L533 76.6L509 80.7Z" fill="#4c77da" stroke="#4c77da"></path><path d="M509 80.7L496 36.9L440 104.4Z" fill="#003990" stroke="#003990"></path><path d="M194 315.9L231 351.7L248 333.6Z" fill="#426ed6" stroke="#426ed6"></path><path d="M233 399.7L182 463.4L250 448.6Z" fill="#4c77da" stroke="#4c77da"></path><path d="M663 368.6L690 340.6L666 344.1Z" fill="#2b5dcd" stroke="#2b5dcd"></path><path d="M677 334L704 312L660 320.7Z" fill="#1d55c9" stroke="#1d55c9"></path><path d="M209 279.3L194 315.9L248 333.6Z" fill="#2b5dcd" stroke="#2b5dcd"></path><path d="M174 262L194 315.9L209 279.3Z" fill="#0348b9" stroke="#0348b9"></path><path d="M191 364.7L199 371L198 350.9Z" fill="#1d55c9" stroke="#1d55c9"></path><path d="M198 350.9L199 371L231 351.7Z" fill="#064cc4" stroke="#064cc4"></path><path d="M266 539.3L286 505.6L244 524.4Z" fill="#0041a5" stroke="#0041a5"></path><path d="M250 448.6L286 505.6L323 440.9Z" fill="#4c77da" stroke="#4c77da"></path><path d="M374 508.1L333 572.3L376 508.3Z" fill="#4c77da" stroke="#4c77da"></path><path d="M454 525.6L495 555.1L510 490.3Z" fill="#426ed6" stroke="#426ed6"></path><path d="M510 490.3L600 510.3L571 398.4Z" fill="#003990" stroke="#003990"></path><path d="M663 368.6L705 387.4L690 340.6Z" fill="#064cc4" stroke="#064cc4"></path><path d="M482 600L495 555.1L454 525.6Z" fill="#003990" stroke="#003990"></path><path d="M482 600L454 525.6L416 523.3Z" fill="#0144af" stroke="#0144af"></path><path d="M669 249L667 183.6L608 198.4Z" fill="#426ed6" stroke="#426ed6"></path><path d="M635 174.4L632 110.4L579 119.9Z" fill="#0144af" stroke="#0144af"></path><path d="M579 119.9L638 68.6L533 76.6Z" fill="#1d55c9" stroke="#1d55c9"></path><path d="M678 179.7L667 183.6L692 186.3Z" fill="#426ed6" stroke="#426ed6"></path><path d="M539 551.1L600 510.3L510 490.3Z" fill="#0144af" stroke="#0144af"></path><path d="M184 347.6L191 364.7L198 350.9Z" fill="#0144af" stroke="#0144af"></path><path d="M199 371L179 399.9L233 399.7Z" fill="#0144af" stroke="#0144af"></path><path d="M495 555.1L518 556.1L510 490.3Z" fill="#003990" stroke="#003990"></path><path d="M690 340.6L704 312L677 334Z" fill="#1d55c9" stroke="#1d55c9"></path><path d="M158 306.3L184 347.6L194 315.9Z" fill="#0144af" stroke="#0144af"></path><path d="M194 315.9L184 347.6L198 350.9Z" fill="#0348b9" stroke="#0348b9"></path><path d="M518 556.1L539 551.1L510 490.3Z" fill="#064cc4" stroke="#064cc4"></path><path d="M348 106.9L250 128.6L312 173.7Z" fill="#0041a5" stroke="#0041a5"></path><path d="M690 458.3L687 404.9L609 401.4Z" fill="#1d55c9" stroke="#1d55c9"></path><path d="M690 340.6L762 357L704 312Z" fill="#1d55c9" stroke="#1d55c9"></path><path d="M692 186.3L667 183.6L669 249Z" fill="#003d9a" stroke="#003d9a"></path><path d="M667 183.6L678 179.7L635 174.4Z" fill="#3766d2" stroke="#3766d2"></path><path d="M250 128.6L216 163.4L231 186.6Z" fill="#4c77da" stroke="#4c77da"></path><path d="M231 186.6L174 262L209 279.3Z" fill="#426ed6" stroke="#426ed6"></path><path d="M495 555.1L520 565.4L518 556.1Z" fill="#426ed6" stroke="#426ed6"></path><path d="M518 556.1L520 565.4L539 551.1Z" fill="#003d9a" stroke="#003d9a"></path><path d="M539 551.1L595 531.4L600 510.3Z" fill="#0348b9" stroke="#0348b9"></path><path d="M500 600L520 565.4L495 555.1Z" fill="#1d55c9" stroke="#1d55c9"></path><path d="M615 569.3L595 531.4L580 600Z" fill="#2b5dcd" stroke="#2b5dcd"></path><path d="M600 510.3L690 458.3L609 401.4Z" fill="#3766d2" stroke="#3766d2"></path><path d="M678 179.7L632 110.4L635 174.4Z" fill="#0144af" stroke="#0144af"></path><path d="M143 182.7L174 262L231 186.6Z" fill="#0144af" stroke="#0144af"></path><path d="M743 386.4L705 387.4L767 421.9Z" fill="#0144af" stroke="#0144af"></path><path d="M687 404.9L705 387.4L663 368.6Z" fill="#2b5dcd" stroke="#2b5dcd"></path><path d="M506 2.9L496 36.9L547 -9.1Z" fill="#4c77da" stroke="#4c77da"></path><path d="M533 76.6L496 36.9L509 80.7Z" fill="#4c77da" stroke="#4c77da"></path><path d="M218 52.6L218 116.3L250 128.6Z" fill="#0144af" stroke="#0144af"></path><path d="M728 237.1L692 186.3L669 249Z" fill="#003d9a" stroke="#003d9a"></path><path d="M711 136.3L638 68.6L632 110.4Z" fill="#0144af" stroke="#0144af"></path><path d="M112 376L191 364.7L184 347.6Z" fill="#0348b9" stroke="#0348b9"></path><path d="M112 376L179 399.9L191 364.7Z" fill="#0348b9" stroke="#0348b9"></path><path d="M191 364.7L179 399.9L199 371Z" fill="#0348b9" stroke="#0348b9"></path><path d="M174 262L158 306.3L194 315.9Z" fill="#064cc4" stroke="#064cc4"></path><path d="M266 539.3L333 572.3L286 505.6Z" fill="#1d55c9" stroke="#1d55c9"></path><path d="M286 505.6L333 572.3L374 508.1Z" fill="#426ed6" stroke="#426ed6"></path><path d="M679 502.3L690 458.3L600 510.3Z" fill="#426ed6" stroke="#426ed6"></path><path d="M244 524.4L286 505.6L250 448.6Z" fill="#2b5dcd" stroke="#2b5dcd"></path><path d="M791 246.3L728 237.1L704 312Z" fill="#0144af" stroke="#0144af"></path><path d="M704 312L728 237.1L669 249Z" fill="#064cc4" stroke="#064cc4"></path><path d="M299 45.7L250 128.6L348 106.9Z" fill="#003990" stroke="#003990"></path><path d="M250 128.6L218 116.3L216 163.4Z" fill="#3766d2" stroke="#3766d2"></path><path d="M216 163.4L143 182.7L231 186.6Z" fill="#2b5dcd" stroke="#2b5dcd"></path><path d="M174 262L135 265.4L158 306.3Z" fill="#3766d2" stroke="#3766d2"></path><path d="M195 508.4L244 524.4L250 448.6Z" fill="#426ed6" stroke="#426ed6"></path><path d="M415 0L395 14.7L440 104.4Z" fill="#1d55c9" stroke="#1d55c9"></path><path d="M349 649.1L482 600L416 523.3Z" fill="#3766d2" stroke="#3766d2"></path><path d="M520 565.4L549 600L539 551.1Z" fill="#064cc4" stroke="#064cc4"></path><path d="M482 600L486 600L495 555.1Z" fill="#0144af" stroke="#0144af"></path><path d="M360 7.9L348 106.9L369 104.6Z" fill="#0144af" stroke="#0144af"></path><path d="M486 600L500 600L495 555.1Z" fill="#003990" stroke="#003990"></path><path d="M188 141.9L184 152.3L216 163.4Z" fill="#1d55c9" stroke="#1d55c9"></path><path d="M500 600L520 600L520 565.4Z" fill="#1d55c9" stroke="#1d55c9"></path><path d="M615 569.3L679 502.3L600 510.3Z" fill="#426ed6" stroke="#426ed6"></path><path d="M218 116.3L188 141.9L216 163.4Z" fill="#1d55c9" stroke="#1d55c9"></path><path d="M175 138.6L188 141.9L192 100.7Z" fill="#0144af" stroke="#0144af"></path><path d="M172 481.3L182 463.4L152 453.4Z" fill="#0348b9" stroke="#0348b9"></path><path d="M179 399.9L182 463.4L233 399.7Z" fill="#426ed6" stroke="#426ed6"></path><path d="M615 569.3L600 510.3L595 531.4Z" fill="#1d55c9" stroke="#1d55c9"></path><path d="M711 136.3L632 110.4L678 179.7Z" fill="#0144af" stroke="#0144af"></path><path d="M632 110.4L638 68.6L579 119.9Z" fill="#064cc4" stroke="#064cc4"></path><path d="M711 136.3L678 179.7L692 186.3Z" fill="#064cc4" stroke="#064cc4"></path><path d="M493 0L468 0L496 36.9Z" fill="#1d55c9" stroke="#1d55c9"></path><path d="M496 36.9L468 0L440 104.4Z" fill="#426ed6" stroke="#426ed6"></path><path d="M143 182.7L140 254.1L174 262Z" fill="#003990" stroke="#003990"></path><path d="M115 436.7L152 453.4L179 399.9Z" fill="#4c77da" stroke="#4c77da"></path><path d="M143 182.7L216 163.4L184 152.3Z" fill="#064cc4" stroke="#064cc4"></path><path d="M468 0L415 0L440 104.4Z" fill="#0144af" stroke="#0144af"></path><path d="M395 14.7L360 7.9L369 104.6Z" fill="#0041a5" stroke="#0041a5"></path><path d="M384 0L360 7.9L395 14.7Z" fill="#003d9a" stroke="#003d9a"></path><path d="M212 552.1L251 550.1L244 524.4Z" fill="#064cc4" stroke="#064cc4"></path><path d="M244 524.4L251 550.1L266 539.3Z" fill="#003990" stroke="#003990"></path><path d="M266 539.3L296 593.3L333 572.3Z" fill="#2b5dcd" stroke="#2b5dcd"></path><path d="M547 -9.1L496 36.9L533 76.6Z" fill="#064cc4" stroke="#064cc4"></path><path d="M767 421.9L705 387.4L687 404.9Z" fill="#1d55c9" stroke="#1d55c9"></path><path d="M705 387.4L743 386.4L690 340.6Z" fill="#0348b9" stroke="#0348b9"></path><path d="M767 421.9L687 404.9L690 458.3Z" fill="#2b5dcd" stroke="#2b5dcd"></path><path d="M506 2.9L493 0L496 36.9Z" fill="#2b5dcd" stroke="#2b5dcd"></path><path d="M73 290L135 265.4L71 191.1Z" fill="#003990" stroke="#003990"></path><path d="M140 254.1L135 265.4L174 262Z" fill="#0144af" stroke="#0144af"></path><path d="M520 600L549 600L520 565.4Z" fill="#2b5dcd" stroke="#2b5dcd"></path><path d="M415 0L384 0L395 14.7Z" fill="#1d55c9" stroke="#1d55c9"></path><path d="M761 159.1L730 180.7L779 200Z" fill="#064cc4" stroke="#064cc4"></path><path d="M728 237.1L730 180.7L692 186.3Z" fill="#4c77da" stroke="#4c77da"></path><path d="M580 600L595 531.4L539 551.1Z" fill="#0041a5" stroke="#0041a5"></path><path d="M172 481.3L188 490.6L182 463.4Z" fill="#3766d2" stroke="#3766d2"></path><path d="M182 463.4L188 490.6L250 448.6Z" fill="#0348b9" stroke="#0348b9"></path><path d="M192 100.7L188 141.9L218 116.3Z" fill="#003990" stroke="#003990"></path><path d="M188 141.9L175 138.6L184 152.3Z" fill="#0041a5" stroke="#0041a5"></path><path d="M730 180.7L711 136.3L692 186.3Z" fill="#0144af" stroke="#0144af"></path><path d="M188 490.6L195 508.4L250 448.6Z" fill="#426ed6" stroke="#426ed6"></path><path d="M354 -9.3L347 0L360 7.9Z" fill="#064cc4" stroke="#064cc4"></path><path d="M360 7.9L347 0L299 45.7Z" fill="#0348b9" stroke="#0348b9"></path><path d="M218 52.6L192 100.7L218 116.3Z" fill="#4c77da" stroke="#4c77da"></path><path d="M285 600L296 593.3L271 600Z" fill="#3766d2" stroke="#3766d2"></path><path d="M251 550.1L296 593.3L266 539.3Z" fill="#1d55c9" stroke="#1d55c9"></path><path d="M333 572.3L349 649.1L416 523.3Z" fill="#4c77da" stroke="#4c77da"></path><path d="M152 453.4L182 463.4L179 399.9Z" fill="#1d55c9" stroke="#1d55c9"></path><path d="M188 490.6L172 522.6L195 508.4Z" fill="#4c77da" stroke="#4c77da"></path><path d="M767 421.9L762 357L743 386.4Z" fill="#003990" stroke="#003990"></path><path d="M743 386.4L762 357L690 340.6Z" fill="#4c77da" stroke="#4c77da"></path><path d="M549 600L580 600L539 551.1Z" fill="#3766d2" stroke="#3766d2"></path><path d="M151 133.4L143 182.7L184 152.3Z" fill="#4c77da" stroke="#4c77da"></path><path d="M218 52.6L250 128.6L299 45.7Z" fill="#064cc4" stroke="#064cc4"></path><path d="M175 138.6L151 133.4L184 152.3Z" fill="#0348b9" stroke="#0348b9"></path><path d="M112 376L184 347.6L158 306.3Z" fill="#4c77da" stroke="#4c77da"></path><path d="M384 0L354 -9.3L360 7.9Z" fill="#0041a5" stroke="#0041a5"></path><path d="M347 0L303 0L299 45.7Z" fill="#4c77da" stroke="#4c77da"></path><path d="M336 -53.1L354 -9.3L384 0Z" fill="#0144af" stroke="#0144af"></path><path d="M336 -53.1L384 0L415 0Z" fill="#3766d2" stroke="#3766d2"></path><path d="M336 -53.1L415 0L468 0Z" fill="#426ed6" stroke="#426ed6"></path><path d="M742 502.6L724 477.7L679 502.3Z" fill="#0144af" stroke="#0144af"></path><path d="M679 502.3L724 477.7L690 458.3Z" fill="#0041a5" stroke="#0041a5"></path><path d="M696 551.4L679 502.3L615 569.3Z" fill="#1d55c9" stroke="#1d55c9"></path><path d="M506 2.9L547 -9.1L493 0Z" fill="#4c77da" stroke="#4c77da"></path><path d="M493 0L336 -53.1L468 0Z" fill="#003d9a" stroke="#003d9a"></path><path d="M631 15.9L547 -9.1L533 76.6Z" fill="#0041a5" stroke="#0041a5"></path><path d="M271 600L296 593.3L251 550.1Z" fill="#0348b9" stroke="#0348b9"></path><path d="M296 593.3L349 649.1L333 572.3Z" fill="#064cc4" stroke="#064cc4"></path><path d="M657 48.9L652 46.6L638 68.6Z" fill="#3766d2" stroke="#3766d2"></path><path d="M638 68.6L631 15.9L533 76.6Z" fill="#0144af" stroke="#0144af"></path><path d="M711 136.3L657 48.9L638 68.6Z" fill="#003d9a" stroke="#003d9a"></path><path d="M652 46.6L631 15.9L638 68.6Z" fill="#426ed6" stroke="#426ed6"></path><path d="M336 -53.1L303 0L347 0Z" fill="#003d9a" stroke="#003d9a"></path><path d="M191 543.3L212 552.1L195 508.4Z" fill="#2b5dcd" stroke="#2b5dcd"></path><path d="M195 508.4L212 552.1L244 524.4Z" fill="#064cc4" stroke="#064cc4"></path><path d="M191 543.3L195 508.4L172 522.6Z" fill="#1d55c9" stroke="#1d55c9"></path><path d="M73 290L158 306.3L135 265.4Z" fill="#3766d2" stroke="#3766d2"></path><path d="M68 349.1L112 376L158 306.3Z" fill="#003990" stroke="#003990"></path><path d="M264 5.7L218 52.6L299 45.7Z" fill="#2b5dcd" stroke="#2b5dcd"></path><path d="M153 124.4L151 133.4L175 138.6Z" fill="#2b5dcd" stroke="#2b5dcd"></path><path d="M153 124.4L175 138.6L192 100.7Z" fill="#2b5dcd" stroke="#2b5dcd"></path><path d="M267 600L271 600L251 550.1Z" fill="#3766d2" stroke="#3766d2"></path><path d="M247 600L267 600L251 550.1Z" fill="#0041a5" stroke="#0041a5"></path><path d="M139 77.4L153 124.4L192 100.7Z" fill="#003990" stroke="#003990"></path><path d="M724 477.7L767 421.9L690 458.3Z" fill="#4c77da" stroke="#4c77da"></path><path d="M172 522.6L188 490.6L172 481.3Z" fill="#0348b9" stroke="#0348b9"></path><path d="M213 578.1L247 600L251 550.1Z" fill="#4c77da" stroke="#4c77da"></path><path d="M172 522.6L172 481.3L93 492.3Z" fill="#3766d2" stroke="#3766d2"></path><path d="M642 0L631 15.9L652 46.6Z" fill="#064cc4" stroke="#064cc4"></path><path d="M93 492.3L172 481.3L152 453.4Z" fill="#1d55c9" stroke="#1d55c9"></path><path d="M303 0L264 5.7L299 45.7Z" fill="#064cc4" stroke="#064cc4"></path><path d="M267 0L264 5.7L303 0Z" fill="#4c77da" stroke="#4c77da"></path><path d="M730 180.7L761 159.1L711 136.3Z" fill="#0348b9" stroke="#0348b9"></path><path d="M711 136.3L722 52.7L657 48.9Z" fill="#003d9a" stroke="#003d9a"></path><path d="M686 0L642 0L652 46.6Z" fill="#1d55c9" stroke="#1d55c9"></path><path d="M779 200L730 180.7L728 237.1Z" fill="#2b5dcd" stroke="#2b5dcd"></path><path d="M779 200L728 237.1L791 246.3Z" fill="#2b5dcd" stroke="#2b5dcd"></path><path d="M680 592.1L696 551.4L615 569.3Z" fill="#0144af" stroke="#0144af"></path><path d="M724 477.7L807 457.1L767 421.9Z" fill="#003d9a" stroke="#003d9a"></path><path d="M549 600L578 632.1L580 600Z" fill="#0144af" stroke="#0144af"></path><path d="M580 600L640 603.3L615 569.3Z" fill="#0348b9" stroke="#0348b9"></path><path d="M520 600L578 632.1L549 600Z" fill="#003990" stroke="#003990"></path><path d="M500 600L578 632.1L520 600Z" fill="#4c77da" stroke="#4c77da"></path><path d="M486 600L578 632.1L500 600Z" fill="#4c77da" stroke="#4c77da"></path><path d="M482 600L578 632.1L486 600Z" fill="#3766d2" stroke="#3766d2"></path><path d="M349 649.1L578 632.1L482 600Z" fill="#1d55c9" stroke="#1d55c9"></path><path d="M349 649.1L296 593.3L285 600Z" fill="#0348b9" stroke="#0348b9"></path><path d="M349 649.1L285 600L271 600Z" fill="#426ed6" stroke="#426ed6"></path><path d="M791 246.3L704 312L806 321.1Z" fill="#064cc4" stroke="#064cc4"></path><path d="M213 578.1L251 550.1L212 552.1Z" fill="#1d55c9" stroke="#1d55c9"></path><path d="M267 600L349 649.1L271 600Z" fill="#4c77da" stroke="#4c77da"></path><path d="M112 376L115 436.7L179 399.9Z" fill="#1d55c9" stroke="#1d55c9"></path><path d="M806 321.1L704 312L762 357Z" fill="#2b5dcd" stroke="#2b5dcd"></path><path d="M249 -13.1L267 0L303 0Z" fill="#426ed6" stroke="#426ed6"></path><path d="M264 5.7L249 -13.1L218 52.6Z" fill="#3766d2" stroke="#3766d2"></path><path d="M247 600L349 649.1L267 600Z" fill="#2b5dcd" stroke="#2b5dcd"></path><path d="M191 543.3L213 578.1L212 552.1Z" fill="#003990" stroke="#003990"></path><path d="M172 611.1L213 578.1L191 543.3Z" fill="#003990" stroke="#003990"></path><path d="M578 632.1L640 603.3L580 600Z" fill="#3766d2" stroke="#3766d2"></path><path d="M744 515.3L742 502.6L679 502.3Z" fill="#3766d2" stroke="#3766d2"></path><path d="M791 246.3L788 202.4L779 200Z" fill="#064cc4" stroke="#064cc4"></path><path d="M779 200L814 153.6L761 159.1Z" fill="#4c77da" stroke="#4c77da"></path><path d="M826 339.7L762 357L815 415.7Z" fill="#0144af" stroke="#0144af"></path><path d="M826 339.7L806 321.1L762 357Z" fill="#426ed6" stroke="#426ed6"></path><path d="M791 246.3L843 243.9L788 202.4Z" fill="#0144af" stroke="#0144af"></path><path d="M172 611.1L226 600L213 578.1Z" fill="#064cc4" stroke="#064cc4"></path><path d="M213 578.1L226 600L247 600Z" fill="#3766d2" stroke="#3766d2"></path><path d="M247 600L226 600L349 649.1Z" fill="#4c77da" stroke="#4c77da"></path><path d="M686 0L652 46.6L657 48.9Z" fill="#2b5dcd" stroke="#2b5dcd"></path><path d="M631 15.9L642 0L547 -9.1Z" fill="#0041a5" stroke="#0041a5"></path><path d="M696 551.4L744 515.3L679 502.3Z" fill="#0348b9" stroke="#0348b9"></path><path d="M807 457.1L815 415.7L767 421.9Z" fill="#0144af" stroke="#0144af"></path><path d="M729 600L744 515.3L696 551.4Z" fill="#426ed6" stroke="#426ed6"></path><path d="M80 176.1L143 182.7L90 128.9Z" fill="#1d55c9" stroke="#1d55c9"></path><path d="M71 191.1L140 254.1L143 182.7Z" fill="#426ed6" stroke="#426ed6"></path><path d="M71 191.1L135 265.4L140 254.1Z" fill="#3766d2" stroke="#3766d2"></path><path d="M112 376L35 436.6L115 436.7Z" fill="#426ed6" stroke="#426ed6"></path><path d="M705 588.3L672 650.1L729 600Z" fill="#0041a5" stroke="#0041a5"></path><path d="M640 603.3L680 592.1L615 569.3Z" fill="#2b5dcd" stroke="#2b5dcd"></path><path d="M336 -53.1L249 -13.1L303 0Z" fill="#1d55c9" stroke="#1d55c9"></path><path d="M267 0L249 -13.1L264 5.7Z" fill="#4c77da" stroke="#4c77da"></path><path d="M218 52.6L139 77.4L192 100.7Z" fill="#1d55c9" stroke="#1d55c9"></path><path d="M336 -53.1L347 0L354 -9.3Z" fill="#064cc4" stroke="#064cc4"></path><path d="M710 0L336 -53.1L547 -9.1Z" fill="#0348b9" stroke="#0348b9"></path><path d="M547 -9.1L336 -53.1L493 0Z" fill="#064cc4" stroke="#064cc4"></path><path d="M758 48.9L722 52.7L789 90.6Z" fill="#0348b9" stroke="#0348b9"></path><path d="M722 52.7L711 136.3L789 90.6Z" fill="#0348b9" stroke="#0348b9"></path><path d="M73 290L68 349.1L158 306.3Z" fill="#1d55c9" stroke="#1d55c9"></path><path d="M123 0L139 77.4L218 52.6Z" fill="#003990" stroke="#003990"></path><path d="M153 124.4L90 128.9L151 133.4Z" fill="#426ed6" stroke="#426ed6"></path><path d="M815 415.7L762 357L767 421.9Z" fill="#4c77da" stroke="#4c77da"></path><path d="M806 321.1L833 259.9L791 246.3Z" fill="#003990" stroke="#003990"></path><path d="M705 588.3L680 592.1L672 650.1Z" fill="#0348b9" stroke="#0348b9"></path><path d="M680 592.1L705 588.3L696 551.4Z" fill="#0041a5" stroke="#0041a5"></path><path d="M115 436.7L94 469.4L152 453.4Z" fill="#064cc4" stroke="#064cc4"></path><path d="M109 600L172 611.1L191 543.3Z" fill="#3766d2" stroke="#3766d2"></path><path d="M35 436.6L94 469.4L115 436.7Z" fill="#0041a5" stroke="#0041a5"></path><path d="M90 128.9L143 182.7L151 133.4Z" fill="#1d55c9" stroke="#1d55c9"></path><path d="M73 290L0 315.1L68 349.1Z" fill="#3766d2" stroke="#3766d2"></path><path d="M807 457.1L742 502.6L787 527.6Z" fill="#1d55c9" stroke="#1d55c9"></path><path d="M807 457.1L724 477.7L742 502.6Z" fill="#003d9a" stroke="#003d9a"></path><path d="M38 196.3L71 191.1L80 176.1Z" fill="#426ed6" stroke="#426ed6"></path><path d="M80 176.1L71 191.1L143 182.7Z" fill="#1d55c9" stroke="#1d55c9"></path><path d="M722 52.7L686 0L657 48.9Z" fill="#4c77da" stroke="#4c77da"></path><path d="M642 0L686 0L547 -9.1Z" fill="#064cc4" stroke="#064cc4"></path><path d="M826 339.7L833 259.9L806 321.1Z" fill="#003990" stroke="#003990"></path><path d="M788 202.4L814 153.6L779 200Z" fill="#064cc4" stroke="#064cc4"></path><path d="M787 527.6L742 502.6L744 515.3Z" fill="#003990" stroke="#003990"></path><path d="M139 77.4L90 128.9L153 124.4Z" fill="#1d55c9" stroke="#1d55c9"></path><path d="M47 474.4L93 492.3L94 469.4Z" fill="#003990" stroke="#003990"></path><path d="M94 469.4L93 492.3L152 453.4Z" fill="#426ed6" stroke="#426ed6"></path><path d="M815 415.7L839 344.1L826 339.7Z" fill="#064cc4" stroke="#064cc4"></path><path d="M826 339.7L839 344.1L833 259.9Z" fill="#003990" stroke="#003990"></path><path d="M900 344.6L839 344.1L900 359.9Z" fill="#4c77da" stroke="#4c77da"></path><path d="M827 168.3L814 153.6L788 202.4Z" fill="#3766d2" stroke="#3766d2"></path><path d="M722 52.7L710 0L686 0Z" fill="#0144af" stroke="#0144af"></path><path d="M900 269.4L843 243.9L833 259.9Z" fill="#064cc4" stroke="#064cc4"></path><path d="M833 259.9L843 243.9L791 246.3Z" fill="#3766d2" stroke="#3766d2"></path><path d="M761 5.7L710 0L722 52.7Z" fill="#2b5dcd" stroke="#2b5dcd"></path><path d="M686 0L710 0L547 -9.1Z" fill="#0144af" stroke="#0144af"></path><path d="M789 90.6L711 136.3L761 159.1Z" fill="#0348b9" stroke="#0348b9"></path><path d="M109 600L191 543.3L172 522.6Z" fill="#1d55c9" stroke="#1d55c9"></path><path d="M226 600L172 611.1L349 649.1Z" fill="#0041a5" stroke="#0041a5"></path><path d="M814 153.6L789 90.6L761 159.1Z" fill="#064cc4" stroke="#064cc4"></path><path d="M836 174.3L827 168.3L788 202.4Z" fill="#064cc4" stroke="#064cc4"></path><path d="M814 153.6L824 90.4L789 90.6Z" fill="#003990" stroke="#003990"></path><path d="M754 600L787 527.6L744 515.3Z" fill="#3766d2" stroke="#3766d2"></path><path d="M672 650.1L680 592.1L640 603.3Z" fill="#003990" stroke="#003990"></path><path d="M705 588.3L729 600L696 551.4Z" fill="#0041a5" stroke="#0041a5"></path><path d="M578 632.1L672 650.1L640 603.3Z" fill="#2b5dcd" stroke="#2b5dcd"></path><path d="M349 649.1L672 650.1L578 632.1Z" fill="#0348b9" stroke="#0348b9"></path><path d="M843 243.9L836 174.3L788 202.4Z" fill="#0041a5" stroke="#0041a5"></path><path d="M869 138.6L824 90.4L814 153.6Z" fill="#003990" stroke="#003990"></path><path d="M62 100.4L38 196.3L80 176.1Z" fill="#426ed6" stroke="#426ed6"></path><path d="M71 191.1L20 262L73 290Z" fill="#003d9a" stroke="#003d9a"></path><path d="M20 410.7L35 436.6L112 376Z" fill="#2b5dcd" stroke="#2b5dcd"></path><path d="M860 568.4L816 507.1L787 527.6Z" fill="#426ed6" stroke="#426ed6"></path><path d="M787 527.6L816 507.1L807 457.1Z" fill="#003990" stroke="#003990"></path><path d="M807 457.1L858 460.4L815 415.7Z" fill="#2b5dcd" stroke="#2b5dcd"></path><path d="M38 196.3L20 262L71 191.1Z" fill="#0348b9" stroke="#0348b9"></path><path d="M672 650.1L754 600L729 600Z" fill="#064cc4" stroke="#064cc4"></path><path d="M729 600L754 600L744 515.3Z" fill="#0144af" stroke="#0144af"></path><path d="M20 410.7L112 376L68 349.1Z" fill="#3766d2" stroke="#3766d2"></path><path d="M93 492.3L109 600L172 522.6Z" fill="#0041a5" stroke="#0041a5"></path><path d="M139 77.4L87 65.7L90 128.9Z" fill="#1d55c9" stroke="#1d55c9"></path><path d="M90 128.9L62 100.4L80 176.1Z" fill="#1d55c9" stroke="#1d55c9"></path><path d="M117 0L87 65.7L139 77.4Z" fill="#0348b9" stroke="#0348b9"></path><path d="M35 436.6L47 474.4L94 469.4Z" fill="#2b5dcd" stroke="#2b5dcd"></path><path d="M824 90.4L792 51.6L789 90.6Z" fill="#1d55c9" stroke="#1d55c9"></path><path d="M789 90.6L792 51.6L758 48.9Z" fill="#4c77da" stroke="#4c77da"></path><path d="M758 48.9L766 16.9L722 52.7Z" fill="#0144af" stroke="#0144af"></path><path d="M87 65.7L62 100.4L90 128.9Z" fill="#3766d2" stroke="#3766d2"></path><path d="M0 298.9L73 290L20 262Z" fill="#003990" stroke="#003990"></path><path d="M792 51.6L766 16.9L758 48.9Z" fill="#4c77da" stroke="#4c77da"></path><path d="M0 369.6L20 410.7L68 349.1Z" fill="#4c77da" stroke="#4c77da"></path><path d="M35 436.6L0 473.3L47 474.4Z" fill="#4c77da" stroke="#4c77da"></path><path d="M792 0L761 5.7L766 16.9Z" fill="#4c77da" stroke="#4c77da"></path><path d="M766 16.9L761 5.7L722 52.7Z" fill="#4c77da" stroke="#4c77da"></path><path d="M710 0L933 -13.1L336 -53.1Z" fill="#2b5dcd" stroke="#2b5dcd"></path><path d="M869 138.6L814 153.6L827 168.3Z" fill="#0144af" stroke="#0144af"></path><path d="M792 51.6L799 32.9L766 16.9Z" fill="#0348b9" stroke="#0348b9"></path><path d="M863 499.1L858 460.4L816 507.1Z" fill="#3766d2" stroke="#3766d2"></path><path d="M816 507.1L858 460.4L807 457.1Z" fill="#3766d2" stroke="#3766d2"></path><path d="M839 344.1L900 283L833 259.9Z" fill="#0041a5" stroke="#0041a5"></path><path d="M336 -53.1L170 -42.1L249 -13.1Z" fill="#0144af" stroke="#0144af"></path><path d="M249 -13.1L170 -42.1L218 52.6Z" fill="#0144af" stroke="#0144af"></path><path d="M0 298.9L20 262L0 275Z" fill="#064cc4" stroke="#064cc4"></path><path d="M0 298.9L0 302.3L73 290Z" fill="#003d9a" stroke="#003d9a"></path><path d="M0 275L20 262L0 243.4Z" fill="#0144af" stroke="#0144af"></path><path d="M0 302.3L0 315.1L73 290Z" fill="#426ed6" stroke="#426ed6"></path><path d="M165 -41.1L123 0L218 52.6Z" fill="#3766d2" stroke="#3766d2"></path><path d="M-1 97.6L0 103.6L62 100.4Z" fill="#064cc4" stroke="#064cc4"></path><path d="M0 243.4L20 262L38 196.3Z" fill="#0041a5" stroke="#0041a5"></path><path d="M72 589.3L109 600L93 492.3Z" fill="#426ed6" stroke="#426ed6"></path><path d="M172 611.1L68 645.1L349 649.1Z" fill="#064cc4" stroke="#064cc4"></path><path d="M170 -42.1L165 -41.1L218 52.6Z" fill="#003d9a" stroke="#003d9a"></path><path d="M-12 408.9L-1 351.9L-43 252.3Z" fill="#426ed6" stroke="#426ed6"></path><path d="M0 315.1L-1 351.9L68 349.1Z" fill="#0348b9" stroke="#0348b9"></path><path d="M-1 351.9L0 315.1L-43 252.3Z" fill="#2b5dcd" stroke="#2b5dcd"></path><path d="M0 315.1L0 302.3L-43 252.3Z" fill="#426ed6" stroke="#426ed6"></path><path d="M-1 351.9L0 369.6L68 349.1Z" fill="#0348b9" stroke="#0348b9"></path><path d="M20 410.7L0 424.7L35 436.6Z" fill="#2b5dcd" stroke="#2b5dcd"></path><path d="M-43 252.3L0 243.4L-46 176.6Z" fill="#0348b9" stroke="#0348b9"></path><path d="M-43 252.3L0 302.3L0 298.9Z" fill="#0041a5" stroke="#0041a5"></path><path d="M165 -41.1L117 0L123 0Z" fill="#1d55c9" stroke="#1d55c9"></path><path d="M123 0L117 0L139 77.4Z" fill="#1d55c9" stroke="#1d55c9"></path><path d="M846 47.7L799 32.9L792 51.6Z" fill="#3766d2" stroke="#3766d2"></path><path d="M672 650.1L784 600L754 600Z" fill="#0041a5" stroke="#0041a5"></path><path d="M754 600L784 600L787 527.6Z" fill="#1d55c9" stroke="#1d55c9"></path><path d="M911 312.7L900 283L839 344.1Z" fill="#003990" stroke="#003990"></path><path d="M894 142.4L869 138.6L836 174.3Z" fill="#4c77da" stroke="#4c77da"></path><path d="M836 174.3L869 138.6L827 168.3Z" fill="#1d55c9" stroke="#1d55c9"></path><path d="M900 283L900 279.1L833 259.9Z" fill="#003d9a" stroke="#003d9a"></path><path d="M894 142.4L836 174.3L843 243.9Z" fill="#0348b9" stroke="#0348b9"></path><path d="M824 90.4L846 47.7L792 51.6Z" fill="#003d9a" stroke="#003d9a"></path><path d="M900 279.1L900 269.4L833 259.9Z" fill="#3766d2" stroke="#3766d2"></path><path d="M900 359.9L839 344.1L815 415.7Z" fill="#2b5dcd" stroke="#2b5dcd"></path><path d="M-12 408.9L20 410.7L0 369.6Z" fill="#0041a5" stroke="#0041a5"></path><path d="M-12 408.9L0 424.7L20 410.7Z" fill="#0041a5" stroke="#0041a5"></path><path d="M0 530.1L72 589.3L93 492.3Z" fill="#0144af" stroke="#0144af"></path><path d="M900 440.7L900 359.9L815 415.7Z" fill="#426ed6" stroke="#426ed6"></path><path d="M860 568.4L863 499.1L816 507.1Z" fill="#064cc4" stroke="#064cc4"></path><path d="M858 460.4L900 440.7L815 415.7Z" fill="#2b5dcd" stroke="#2b5dcd"></path><path d="M799 32.9L792 0L766 16.9Z" fill="#1d55c9" stroke="#1d55c9"></path><path d="M761 5.7L792 0L710 0Z" fill="#0144af" stroke="#0144af"></path><path d="M823 0L792 0L799 32.9Z" fill="#0041a5" stroke="#0041a5"></path><path d="M-43 252.3L0 298.9L0 275Z" fill="#0144af" stroke="#0144af"></path><path d="M-1 351.9L-12 408.9L0 369.6Z" fill="#1d55c9" stroke="#1d55c9"></path><path d="M0 530.1L93 492.3L47 474.4Z" fill="#0144af" stroke="#0144af"></path><path d="M0 473.3L35 436.6L0 424.7Z" fill="#003d9a" stroke="#003d9a"></path><path d="M954 343.1L911 312.7L900 344.6Z" fill="#0144af" stroke="#0144af"></path><path d="M900 344.6L911 312.7L839 344.1Z" fill="#0144af" stroke="#0144af"></path><path d="M900 283L911 312.7L900 279.1Z" fill="#0144af" stroke="#0144af"></path><path d="M900 279.1L954 343.1L900 269.4Z" fill="#2b5dcd" stroke="#2b5dcd"></path><path d="M894 142.4L882 118.7L869 138.6Z" fill="#0348b9" stroke="#0348b9"></path><path d="M81 -6.3L89 0L117 0Z" fill="#2b5dcd" stroke="#2b5dcd"></path><path d="M117 0L89 0L87 65.7Z" fill="#3766d2" stroke="#3766d2"></path><path d="M62 100.4L0 103.6L38 196.3Z" fill="#0348b9" stroke="#0348b9"></path><path d="M-12 408.9L0 473.3L0 424.7Z" fill="#0144af" stroke="#0144af"></path><path d="M900 451.3L900 440.7L858 460.4Z" fill="#0348b9" stroke="#0348b9"></path><path d="M900 359.9L954 343.1L900 344.6Z" fill="#0041a5" stroke="#0041a5"></path><path d="M894 142.4L843 243.9L900 269.4Z" fill="#4c77da" stroke="#4c77da"></path><path d="M869 138.6L882 118.7L824 90.4Z" fill="#0348b9" stroke="#0348b9"></path><path d="M784 600L821 600L787 527.6Z" fill="#0348b9" stroke="#0348b9"></path><path d="M900 487.4L900 451.3L858 460.4Z" fill="#4c77da" stroke="#4c77da"></path><path d="M672 650.1L821 600L784 600Z" fill="#3766d2" stroke="#3766d2"></path><path d="M165 -41.1L81 -6.3L117 0Z" fill="#003990" stroke="#003990"></path><path d="M89 0L64 0L87 65.7Z" fill="#4c77da" stroke="#4c77da"></path><path d="M900 88.9L846 47.7L824 90.4Z" fill="#0348b9" stroke="#0348b9"></path><path d="M900 487.4L858 460.4L863 499.1Z" fill="#003990" stroke="#003990"></path><path d="M900 440.7L954 343.1L900 359.9Z" fill="#003990" stroke="#003990"></path><path d="M900 451.3L902 446.6L900 440.7Z" fill="#003d9a" stroke="#003d9a"></path><path d="M900 129.3L894 142.4L900 269.4Z" fill="#064cc4" stroke="#064cc4"></path><path d="M-48 600L0 502.4L0 473.3Z" fill="#0348b9" stroke="#0348b9"></path><path d="M0 473.3L0 502.4L47 474.4Z" fill="#064cc4" stroke="#064cc4"></path><path d="M-1 97.6L62 100.4L0 43.9Z" fill="#0041a5" stroke="#0041a5"></path><path d="M0 243.4L-43 252.3L0 275Z" fill="#003990" stroke="#003990"></path><path d="M0 7.7L64 0L0 0Z" fill="#0041a5" stroke="#0041a5"></path><path d="M81 -6.3L64 0L89 0Z" fill="#064cc4" stroke="#064cc4"></path><path d="M846 47.7L823 0L799 32.9Z" fill="#003990" stroke="#003990"></path><path d="M792 0L933 -13.1L710 0Z" fill="#2b5dcd" stroke="#2b5dcd"></path><path d="M863 0L823 0L846 47.7Z" fill="#3766d2" stroke="#3766d2"></path><path d="M900 88.9L824 90.4L882 118.7Z" fill="#003d9a" stroke="#003d9a"></path><path d="M-46 176.6L0 243.4L38 196.3Z" fill="#2b5dcd" stroke="#2b5dcd"></path><path d="M-48 600L0 530.1L0 502.4Z" fill="#003990" stroke="#003990"></path><path d="M0 530.1L51 600L72 589.3Z" fill="#426ed6" stroke="#426ed6"></path><path d="M72 589.3L61 617.1L109 600Z" fill="#0041a5" stroke="#0041a5"></path><path d="M109 600L68 645.1L172 611.1Z" fill="#0144af" stroke="#0144af"></path><path d="M954 343.1L900 129.3L900 269.4Z" fill="#426ed6" stroke="#426ed6"></path><path d="M894 142.4L900 129.3L882 118.7Z" fill="#3766d2" stroke="#3766d2"></path><path d="M0 43.9L62 100.4L87 65.7Z" fill="#0144af" stroke="#0144af"></path><path d="M0 103.6L-46 176.6L38 196.3Z" fill="#064cc4" stroke="#064cc4"></path><path d="M900 503.1L900 487.4L863 499.1Z" fill="#1d55c9" stroke="#1d55c9"></path><path d="M900 451.3L900 487.4L902 446.6Z" fill="#2b5dcd" stroke="#2b5dcd"></path><path d="M902 446.6L954 343.1L900 440.7Z" fill="#4c77da" stroke="#4c77da"></path><path d="M821 600L860 568.4L787 527.6Z" fill="#2b5dcd" stroke="#2b5dcd"></path><path d="M51 600L61 617.1L72 589.3Z" fill="#0041a5" stroke="#0041a5"></path><path d="M0 502.4L0 530.1L47 474.4Z" fill="#003990" stroke="#003990"></path><path d="M0 600L68 645.1L61 617.1Z" fill="#0348b9" stroke="#0348b9"></path><path d="M0 599.1L0 530.1L-48 600Z" fill="#0041a5" stroke="#0041a5"></path><path d="M860 568.4L900 503.1L863 499.1Z" fill="#426ed6" stroke="#426ed6"></path><path d="M937 533.3L954 343.1L902 446.6Z" fill="#064cc4" stroke="#064cc4"></path><path d="M0 600L61 617.1L51 600Z" fill="#4c77da" stroke="#4c77da"></path><path d="M61 617.1L68 645.1L109 600Z" fill="#003990" stroke="#003990"></path><path d="M933 -13.1L900 88.9L900 129.3Z" fill="#3766d2" stroke="#3766d2"></path><path d="M900 129.3L900 88.9L882 118.7Z" fill="#003d9a" stroke="#003d9a"></path><path d="M-1 97.6L-46 176.6L0 103.6Z" fill="#0348b9" stroke="#0348b9"></path><path d="M937 533.3L902 446.6L900 487.4Z" fill="#2b5dcd" stroke="#2b5dcd"></path><path d="M911 312.7L954 343.1L900 279.1Z" fill="#0041a5" stroke="#0041a5"></path><path d="M933 -13.1L900 71.7L900 88.9Z" fill="#1d55c9" stroke="#1d55c9"></path><path d="M900 88.9L900 71.7L846 47.7Z" fill="#426ed6" stroke="#426ed6"></path><path d="M64 0L0 43.9L87 65.7Z" fill="#003d9a" stroke="#003d9a"></path><path d="M-1 97.6L-32 -11.1L-46 176.6Z" fill="#2b5dcd" stroke="#2b5dcd"></path><path d="M900 44.6L863 0L846 47.7Z" fill="#003d9a" stroke="#003d9a"></path><path d="M823 0L933 -13.1L792 0Z" fill="#003990" stroke="#003990"></path><path d="M860 568.4L937 533.3L900 503.1Z" fill="#0041a5" stroke="#0041a5"></path><path d="M900 503.1L937 533.3L900 487.4Z" fill="#003d9a" stroke="#003d9a"></path><path d="M821 600L878 601.1L860 568.4Z" fill="#064cc4" stroke="#064cc4"></path><path d="M672 650.1L878 601.1L821 600Z" fill="#003d9a" stroke="#003d9a"></path><path d="M933 -13.1L900 44.6L900 71.7Z" fill="#0348b9" stroke="#0348b9"></path><path d="M900 71.7L900 44.6L846 47.7Z" fill="#2b5dcd" stroke="#2b5dcd"></path><path d="M-48 600L0 473.3L-12 408.9Z" fill="#064cc4" stroke="#064cc4"></path><path d="M0 530.1L0 599.1L51 600Z" fill="#0348b9" stroke="#0348b9"></path><path d="M-48 600L0 600L0 599.1Z" fill="#2b5dcd" stroke="#2b5dcd"></path><path d="M0 599.1L0 600L51 600Z" fill="#1d55c9" stroke="#1d55c9"></path><path d="M64 0L0 7.7L0 43.9Z" fill="#0348b9" stroke="#0348b9"></path><path d="M0 43.9L-32 -11.1L-1 97.6Z" fill="#0041a5" stroke="#0041a5"></path><path d="M0 0L64 0L81 -6.3Z" fill="#3766d2" stroke="#3766d2"></path><path d="M-32 -11.1L0 0L81 -6.3Z" fill="#003d9a" stroke="#003d9a"></path><path d="M0 7.7L-32 -11.1L0 43.9Z" fill="#0144af" stroke="#0144af"></path><path d="M943 600L900 600L878 601.1Z" fill="#0348b9" stroke="#0348b9"></path><path d="M878 601.1L900 600L860 568.4Z" fill="#1d55c9" stroke="#1d55c9"></path><path d="M900 600L937 533.3L860 568.4Z" fill="#0041a5" stroke="#0041a5"></path><path d="M933 -13.1L900 0L900 44.6Z" fill="#064cc4" stroke="#064cc4"></path><path d="M900 44.6L900 0L863 0Z" fill="#0348b9" stroke="#0348b9"></path><path d="M863 0L933 -13.1L823 0Z" fill="#003990" stroke="#003990"></path><path d="M165 -41.1L-32 -11.1L81 -6.3Z" fill="#003990" stroke="#003990"></path><path d="M0 0L-32 -11.1L0 7.7Z" fill="#003d9a" stroke="#003d9a"></path><path d="M170 -42.1L-32 -11.1L165 -41.1Z" fill="#0041a5" stroke="#0041a5"></path><path d="M-43 252.3L-48 600L-12 408.9Z" fill="#0348b9" stroke="#0348b9"></path><path d="M0 600L-48 600L68 645.1Z" fill="#4c77da" stroke="#4c77da"></path><path d="M-46 176.6L-48 600L-43 252.3Z" fill="#0348b9" stroke="#0348b9"></path><path d="M672 650.1L943 600L878 601.1Z" fill="#4c77da" stroke="#4c77da"></path><path d="M900 600L943 600L937 533.3Z" fill="#0348b9" stroke="#0348b9"></path><path d="M937 533.3L943 600L954 343.1Z" fill="#2b5dcd" stroke="#2b5dcd"></path><path d="M954 343.1L933 -13.1L900 129.3Z" fill="#0041a5" stroke="#0041a5"></path><path d="M900 0L933 -13.1L863 0Z" fill="#3766d2" stroke="#3766d2"></path></g></svg>